<svg width="181" height="136" viewBox="0 0 181 136" fill="none" xmlns="http://www.w3.org/2000/svg">
<path fill-rule="evenodd" clip-rule="evenodd" d="M136.21 89.26L146.85 115.1C147.99 117.95 148.75 120.42 148.75 122.7C148.75 128.59 144.38 130.49 131.65 130.87V136H180.29V130.87C175.16 130.11 171.17 128.97 169.08 123.84L118.54 0.910004H99.5399L104.86 13.45L67.4577 107.931L43.9201 50.68H31.9201L35.2801 58.6L7.6801 128.32C6.4801 131.56 3.9601 132.28 0.600098 132.76V136H24.2401V132.76C16.0801 132.52 13.3201 131.2 13.3201 127.48C13.3201 126.16 13.8001 124.48 14.5201 122.68L20.8801 106.48H55.0801L61.6836 122.517L61.16 123.84C59.26 128.97 55.27 130.11 49.95 130.87V136H52.2001H82.9201H87.38V130.87C82.7377 130.733 79.1993 130.376 76.5708 129.701C76.2973 129.3 76.0531 128.843 75.8401 128.32L71.2015 117.037C71.4357 116.345 71.7006 115.633 71.99 114.91L82.06 89.26H136.21ZM84.34 83.18L108.66 21.43L133.74 83.18H84.34ZM22.3201 102.64L37.6801 63.64L53.5201 102.64H22.3201Z" fill="black"/>
</svg>
