<svg xmlns="http://www.w3.org/2000/svg" fill="none" height="512" viewBox="0 0 24 24" width="512"><path d="m12 2.25c-5.376 0-9.75 4.374-9.75 9.75s4.374 9.75 9.75 9.75 9.75-4.374 9.75-9.75-4.374-9.75-9.75-9.75zm0 18c-4.549 0-8.25-3.701-8.25-8.25s3.701-8.25 8.25-8.25 8.25 3.701 8.25 8.25-3.701 8.25-8.25 8.25zm2.53-8.781c.293.293.293.768 0 1.061l-3 3c-.146.146-.338.22-.53.22s-.384-.073-.53-.22c-.293-.293-.293-.768 0-1.061l2.47-2.47-2.47-2.46995c-.293-.293-.293-.76803 0-1.06103s.768-.293 1.061 0z" fill="rgb(0,0,0)"></path></svg>
